<svg width="64" height="64" viewBox="0 0 64 64" fill="none" xmlns="http://www.w3.org/2000/svg">
<rect width="64" height="64" rx="8" fill="#2e2933"/>
<path d="M46.5 24.75H51.3333C52.6152 24.75 53.8446 25.2592 54.751 26.1657C55.6574 27.0721 56.1667 28.3015 56.1667 29.5833V56.1667L46.5 46.5H32C30.7181 46.5 29.4887 45.9908 28.5823 45.0844C27.6759 44.1779 27.1667 42.9486 27.1667 41.6667V39.25M36.8333 24.75C36.8333 26.0319 36.3241 27.2613 35.4177 28.1677C34.5113 29.0741 33.2819 29.5833 32 29.5833H17.5L7.83334 39.25V12.6667C7.83334 10.0083 10.0083 7.83334 12.6667 7.83334H32C33.2819 7.83334 34.5113 8.34256 35.4177 9.24899C36.3241 10.1554 36.8333 11.3848 36.8333 12.6667V24.75Z" stroke="#954EF2" stroke-width="2" stroke-linecap="round" stroke-linejoin="round"/>
<circle cx="14.4906" cy="18.8679" r="2.73585" fill="#954EF2"/>
<circle cx="22.1509" cy="18.8679" r="2.73585" fill="#954EF2"/>
<circle cx="29.8113" cy="18.8679" r="2.73585" fill="#954EF2"/>
</svg>
