<svg width="16" height="12" viewBox="0 0 16 12" fill="none" xmlns="http://www.w3.org/2000/svg">
<path d="M15.922 3.966C15.406 1.242 12.682 0.903503 12.682 0.903503H0.482004C0.0780037 0.903503 0.0285038 1.435 0.0285038 1.435C0.0285038 1.435 -0.0259962 6.3185 0.0150038 9.3185C0.125004 10.9325 1.739 11.099 1.739 11.099C1.739 11.099 7.2495 11.0835 9.7155 11.0655C11.341 10.7815 11.505 9.354 11.486 8.5755C14.39 8.737 16.4345 6.6875 15.922 3.966ZM8.5465 6.3075C7.716 7.2735 5.8725 8.956 5.8725 8.956C5.8725 8.956 5.792 9.0365 5.664 8.9715C5.6145 8.935 5.594 8.9115 5.594 8.9115C5.2965 8.6175 3.3485 6.88 2.9035 6.276C2.432 5.6325 2.211 4.4765 2.844 3.802C3.4765 3.13 4.8465 3.078 5.7525 4.0725C5.7525 4.0725 6.794 2.885 8.065 3.432C9.333 3.9795 9.2865 5.44 8.5465 6.3075ZM12.6615 6.6255C12.0415 6.7035 11.5395 6.6435 11.5395 6.6435V2.857H12.719C12.719 2.857 14.0345 3.2245 14.0345 4.615C14.0345 5.891 13.3775 6.3935 12.6615 6.6255Z" fill="#E2D7FD"/>
</svg>
