<svg width="58" height="58" viewBox="0 0 58 58" fill="none" xmlns="http://www.w3.org/2000/svg">
<g id="lucide/messages-square">
<path id="Vector" d="M43.5 21.75H48.3333C49.6152 21.75 50.8446 22.2592 51.751 23.1657C52.6574 24.0721 53.1666 25.3015 53.1666 26.5833V53.1667L43.5 43.5H29C27.7181 43.5 26.4887 42.9908 25.5823 42.0844C24.6759 41.1779 24.1666 39.9486 24.1666 38.6667V36.25M33.8333 21.75C33.8333 23.0319 33.3241 24.2613 32.4177 25.1677C31.5112 26.0741 30.2819 26.5833 29 26.5833H14.5L4.83331 36.25V9.66668C4.83331 7.00834 7.00831 4.83334 9.66665 4.83334H29C30.2819 4.83334 31.5112 5.34257 32.4177 6.24899C33.3241 7.15542 33.8333 8.3848 33.8333 9.66668V21.75Z" stroke="#954EF2" stroke-width="2" stroke-linecap="round" stroke-linejoin="round"/>
<circle id="Ellipse 1" cx="11.4905" cy="15.8679" r="2.73585" fill="#954EF2"/>
<circle id="Ellipse 2" cx="19.1509" cy="15.8679" r="2.73585" fill="#954EF2"/>
<circle id="Ellipse 3" cx="26.8113" cy="15.8679" r="2.73585" fill="#954EF2"/>
</g>
</svg>
